<?xml version="1.0" encoding="UTF-8"?>
<svg xmlns="http://www.w3.org/2000/svg" version="1.1" viewBox="0 0 1440 1024">
  <defs>
    <style>
      .cls-1 {
        fill: none;
      }

      .cls-2 {
        fill: #063389;
      }
    </style>
  </defs>
  <!-- Generator: Adobe Illustrator 28.6.0, SVG Export Plug-In . SVG Version: 1.2.0 Build 709)  -->
  <g>
    <g id="katman_1">
      <rect class="cls-1" y="0" width="1440" height="1024"/>
      <g>
        <path class="cls-2" d="M486.1,504.5l-45.2,55c-5.1,6.2,1.1,15.2,8.7,12.7l34.8-11.5c.8-.3,1.6-.4,2.4-.4l253.4-3.5c2.6,0,5-1.3,6.5-3.5l32.2-47.6c3.8-5.6-.6-13-7.4-12.4l-105.6,9.9,127.8-24.7c2-.4,3.8-1.5,5-3.2l28-39.4c4.2-5.9-1-13.9-8.1-12.5l-102,20.7,131.9-42.5c1.7-.6,3.2-1.7,4.2-3.2l38.7-58c4.4-6.6-2.6-15-9.9-11.7l-392.4,173.7c-1.1.5-2.1,1.3-2.9,2.2Z"/>
        <path class="cls-2" d="M598.9,649.5l-20-72.3c-1.4-5.1,2.5-10.2,7.8-10.1l141.2,1.5-101,8.4c-3.9.3-7,3.4-7.3,7.3l-4.9,63.7c-.7,8.9-13.3,10.1-15.7,1.5Z"/>
        <path class="cls-2" d="M688,399.5l-114.5,55.7c-8.1,4-15.5-6.5-9.1-12.9l158.7-155.9c6.3-6.2,16.5.9,12.9,8.9l-44.2,100.3c-.8,1.7-2.1,3.1-3.8,4Z"/>
      </g>
    </g>
  </g>
</svg>